<?xml version="1.0" standalone="no"?><!DOCTYPE svg PUBLIC "-//W3C//DTD SVG 1.1//EN" "http://www.w3.org/Graphics/SVG/1.1/DTD/svg11.dtd"><svg t="1768879356562" class="icon" viewBox="0 0 1024 1024" version="1.1" xmlns="http://www.w3.org/2000/svg" p-id="5637" xmlns:xlink="http://www.w3.org/1999/xlink" width="200" height="200"><path d="M512 1024c-282.624 0-512-229.376-512-512s229.376-512 512-512 512 229.376 512 512-229.376 512-512 512zM73.216 395.776c62.976-76.288 115.712-122.88 158.208-139.776 63.488-25.088 133.12 43.52 120.832 101.376-130.048 9.216-169.984 120.832-120.832 333.824a2261.577143 2261.577143 0 0 0-118.272 15.36c35.84 58.88 130.048 138.752 198.656 178.176 102.912 40.96 197.632 46.592 285.184 17.92 131.584-52.224 197.12-122.88 197.12-211.456 6.144-130.048-91.648-174.08-135.168-184.832-22.528 0-92.16-24.064-180.736 19.456-33.28 46.592-36.352 107.008-9.728 180.736 12.288-82.432 55.296-123.392 128.512-123.392s99.328 40.96 77.312 123.392c-49.152 57.856-103.424 86.528-162.816 86.528S391.168 764.416 327.68 706.56c-44.544-114.176-44.544-193.024 0-236.544 67.584-65.536 103.936-69.12 184.32-74.24 63.488 11.776 117.76 29.696 162.816 52.736 69.12 51.712 124.928 73.216 166.4 64.512 62.464-13.312 83.968-66.048 93.696-135.168-23.04 24.064-61.44 38.912-114.688 44.544-45.056-6.656-79.36-39.936-102.4-98.816-23.552-72.192-83.968-134.656-181.248-187.904-84.992-27.648-175.104-27.648-269.312 0-91.136 29.696-155.648 116.224-194.048 260.096z" fill="#20A0FF" p-id="5638"></path></svg>